<?xml version="1.0" standalone="no"?>
<!DOCTYPE svg PUBLIC "-//W3C//DTD SVG 20010904//EN"
 "http://www.w3.org/TR/2001/REC-SVG-20010904/DTD/svg10.dtd">
<svg version="1.0" xmlns="http://www.w3.org/2000/svg"
 width="541.000000pt" height="541.000000pt" viewBox="0 0 541.000000 541.000000"
 preserveAspectRatio="xMidYMid meet">
<metadata>
Created by potrace 1.14, written by Peter Selinger 2001-2017
</metadata>
<g transform="translate(0.000000,541.000000) scale(0.100000,-0.100000)"
fill="#000000" stroke="none">
<path d="M2647 5263 c-3 -4 -33 -8 -66 -8 -34 0 -61 -2 -61 -5 0 -3 -23 -6
-52 -8 -86 -5 -86 -11 -9 -85 38 -37 68 -67 67 -67 -2 0 22 -26 53 -57 31 -32
81 -87 111 -122 30 -35 60 -69 65 -75 6 -6 30 -36 55 -66 25 -30 49 -60 55
-66 31 -35 45 -55 45 -63 0 -5 4 -11 8 -13 5 -1 39 -46 76 -98 37 -52 74 -103
82 -113 7 -9 14 -20 14 -23 0 -3 13 -24 29 -47 30 -43 77 -117 97 -152 6 -11
34 -59 62 -107 27 -47 53 -96 57 -107 3 -12 11 -21 16 -21 5 0 8 -3 7 -7 -2
-11 74 -167 84 -171 4 -2 8 -10 8 -18 0 -8 4 -22 9 -32 22 -40 54 -118 54
-129 0 -7 4 -13 9 -13 4 0 8 -8 8 -18 0 -10 4 -22 9 -28 9 -9 69 -164 76 -196
2 -9 9 -26 15 -37 6 -12 7 -21 3 -21 -4 0 -2 -5 5 -12 7 -7 12 -22 12 -35 0
-13 4 -23 8 -23 4 0 8 -10 9 -22 1 -12 6 -33 12 -47 21 -59 24 -67 26 -81 3
-27 27 -95 39 -109 9 -12 8 -13 -3 -6 -11 6 -13 4 -7 -11 4 -10 9 -26 11 -34
2 -8 4 -15 5 -15 2 0 10 -36 16 -76 4 -21 12 -36 20 -36 8 0 14 4 14 10 0 10
62 101 73 105 4 2 7 10 7 18 0 8 5 14 10 14 6 0 10 4 10 9 0 5 26 51 58 102
32 52 70 114 83 139 13 25 29 48 34 52 6 4 6 8 1 8 -5 0 -4 6 2 13 21 27 110
206 105 211 -4 3 -1 6 5 6 7 0 12 4 12 9 0 5 13 38 29 73 25 55 40 91 46 108
1 3 9 22 18 42 10 21 17 39 17 41 0 3 8 22 17 43 9 22 18 44 19 49 3 13 53
155 61 175 3 8 7 17 8 20 1 3 12 39 24 80 13 41 25 82 26 90 2 8 4 15 5 15 1
0 3 7 5 15 1 8 8 35 15 60 7 25 12 46 12 47 -1 2 4 17 9 35 6 18 12 42 14 53
3 11 7 31 11 45 18 77 16 90 -19 123 -44 42 -82 74 -137 117 -25 19 -50 39
-56 45 -6 6 -42 31 -80 55 -38 25 -71 47 -74 50 -12 14 -203 120 -216 120 -8
0 -14 5 -14 10 0 6 -4 10 -9 10 -5 0 -47 17 -93 38 -45 21 -99 44 -118 51 -19
7 -44 17 -55 21 -11 5 -51 19 -90 30 -38 12 -77 25 -85 28 -16 5 -22 7 -60 16
-14 3 -45 11 -70 16 -43 10 -72 16 -130 25 -14 2 -25 4 -25 5 0 3 -93 15 -185
25 -25 3 -114 7 -197 9 -112 3 -151 1 -146 -8 4 -6 0 -5 -9 2 -9 7 -18 9 -21
5z"/>
<path d="M2033 5153 c-13 -2 -23 -9 -23 -15 0 -6 -3 -9 -6 -5 -5 4 -54 -10
-129 -37 -5 -2 -13 -4 -18 -5 -4 0 -22 -8 -40 -18 -17 -9 -35 -17 -38 -18 -14
-1 -135 -61 -141 -70 -4 -5 -8 -7 -8 -3 0 4 -33 -12 -72 -34 -40 -23 -82 -46
-93 -52 -42 -23 -203 -138 -285 -203 -79 -63 -320 -295 -320 -308 0 -3 -9 -16
-21 -28 -19 -20 -105 -132 -152 -197 -41 -58 -97 -150 -97 -160 0 -5 -4 -10
-9 -10 -10 0 -27 -39 -23 -52 1 -5 -2 -8 -6 -8 -4 0 -29 -44 -54 -97 -97 -203
-103 -221 -70 -208 9 4 24 8 32 10 8 2 16 4 18 5 1 2 10 3 20 4 9 1 28 6 42
11 14 5 32 10 40 11 8 1 40 9 72 18 31 8 67 17 80 20 12 3 34 7 48 11 14 3 39
7 55 10 17 2 41 7 55 10 14 3 40 8 59 11 18 3 43 8 55 10 11 2 41 7 66 10 25
3 56 8 70 10 26 5 58 9 145 18 45 5 93 8 295 21 147 10 478 4 498 -8 7 -5 12
-4 12 3 0 6 4 9 9 5 5 -3 38 -7 73 -10 35 -2 92 -7 128 -11 36 -4 77 -7 93 -7
15 -1 27 -4 27 -7 0 -3 10 -5 23 -6 12 0 47 -4 77 -9 30 -4 66 -8 80 -9 14 -1
27 -4 30 -7 3 -4 23 -9 45 -13 64 -9 97 -16 148 -31 35 -10 47 -11 47 -2 0 9
2 9 8 1 7 -12 38 -23 75 -28 12 -2 29 -6 37 -9 8 -3 35 -12 60 -18 25 -7 47
-13 50 -14 3 -1 19 -5 35 -9 17 -4 37 -10 45 -13 41 -16 50 -13 41 10 -21 51
-84 172 -93 178 -5 3 -10 9 -9 12 0 13 -40 96 -49 102 -6 4 -8 11 -5 16 4 5 1
9 -4 9 -6 0 -11 5 -11 10 0 14 -179 303 -194 312 -6 4 -7 8 -1 8 6 0 6 3 -1 8
-5 4 -32 39 -59 77 -27 39 -55 76 -62 83 -7 7 -13 17 -13 20 0 4 -10 18 -23
32 -12 14 -40 49 -62 78 -21 28 -43 52 -47 52 -4 0 -8 6 -8 14 0 8 -4 16 -9
18 -5 2 -25 23 -46 48 -37 45 -258 283 -283 304 -6 6 -47 44 -89 84 -43 39
-82 71 -88 71 -5 -1 -20 -4 -32 -6z"/>
<path d="M1517 3554 c-4 -4 -28 -9 -54 -11 -27 -2 -66 -5 -89 -7 -22 -1 -45
-5 -50 -7 -5 -2 -30 -4 -56 -4 -27 0 -48 -2 -48 -5 0 -4 -10 -6 -22 -7 -45 -1
-143 -15 -148 -22 -3 -3 -21 -7 -40 -7 -19 -1 -48 -4 -65 -8 -16 -3 -46 -9
-65 -12 -19 -3 -53 -10 -75 -16 -44 -11 -67 -16 -105 -24 -14 -3 -43 -10 -65
-16 -22 -6 -45 -11 -52 -12 -7 -1 -16 -5 -19 -9 -4 -4 -15 -7 -24 -7 -10 0
-46 -9 -81 -21 -72 -23 -98 -30 -116 -31 -7 -1 -13 -5 -13 -10 0 -4 -7 -8 -15
-8 -10 0 -15 -10 -15 -28 0 -16 -3 -32 -7 -35 -6 -7 -13 -55 -16 -109 -1 -16
-5 -28 -9 -28 -4 0 -8 -10 -7 -22 0 -13 -3 -48 -7 -78 -4 -30 -7 -65 -8 -77 0
-13 -5 -23 -11 -23 -5 0 -4 -4 4 -9 9 -6 10 -11 2 -15 -6 -4 -11 -12 -11 -17
0 -6 6 -7 13 -3 8 5 8 2 -2 -9 -11 -14 -11 -17 0 -17 10 0 11 -2 2 -8 -16 -10
-15 -254 1 -264 7 -5 6 -8 -3 -8 -11 0 -11 -3 0 -17 10 -11 10 -14 2 -9 -7 4
-13 2 -13 -3 0 -6 4 -11 8 -11 4 0 8 -15 9 -34 0 -18 6 -73 14 -122 7 -49 12
-93 10 -98 -1 -5 1 -16 5 -25 4 -9 8 -23 10 -31 1 -8 6 -28 10 -45 4 -16 7
-38 8 -47 0 -10 4 -18 9 -18 4 0 6 -4 3 -9 -3 -5 3 -35 13 -67 11 -33 21 -68
23 -79 2 -11 6 -22 10 -25 4 -3 9 -17 11 -30 4 -22 24 -77 52 -145 5 -11 9
-22 10 -25 1 -3 8 -18 15 -35 7 -16 13 -33 12 -37 -1 -5 2 -8 8 -8 6 0 9 -3 8
-7 -2 -11 25 -67 37 -75 5 -4 7 -8 3 -8 -3 0 3 -18 15 -39 75 -134 122 -211
129 -211 4 0 8 -6 8 -13 0 -7 9 -23 20 -35 11 -12 20 -25 20 -31 0 -5 4 -11 8
-13 4 -1 23 -24 42 -51 18 -26 39 -47 46 -47 6 0 15 17 19 37 3 21 16 70 27
108 11 39 21 75 22 80 1 6 4 15 8 20 7 13 22 78 20 88 -1 4 2 7 6 7 4 0 8 8 9
18 1 9 7 31 14 47 7 17 13 32 14 35 6 27 49 147 55 155 4 6 13 28 20 50 7 22
24 64 38 94 13 30 25 60 26 65 1 6 6 18 11 26 5 8 10 17 10 20 1 3 16 35 33
71 18 36 32 68 32 72 0 3 15 32 34 66 19 33 38 70 42 83 3 13 10 25 13 28 4 3
28 43 54 90 26 47 57 102 70 122 38 64 101 163 109 173 38 48 96 135 90 135
-4 0 -2 4 4 8 7 4 42 47 78 96 37 48 80 102 96 120 17 17 30 34 30 37 0 3 12
19 28 36 15 16 68 74 117 128 98 107 163 174 243 248 29 26 52 52 52 57 0 6
-17 11 -37 11 -60 2 -128 7 -133 9 -17 8 -497 4 -508 -4 -9 -7 -16 -6 -21 2
-4 7 -10 9 -14 6z"/>
<path d="M1778 2613 c-9 -16 -25 -38 -35 -50 -25 -30 -163 -250 -163 -261 0
-3 -6 -13 -14 -21 -7 -9 -33 -54 -57 -101 -24 -47 -48 -88 -52 -91 -5 -3 -8
-9 -8 -13 1 -3 -15 -38 -34 -76 -19 -39 -32 -70 -28 -70 5 0 3 -4 -3 -8 -13
-8 -77 -150 -77 -169 0 -7 -4 -13 -9 -13 -4 0 -8 -6 -8 -14 0 -7 -9 -35 -21
-62 -11 -27 -24 -58 -29 -69 -11 -26 -55 -149 -55 -155 -1 -3 -9 -30 -19 -60
-10 -30 -20 -62 -22 -70 -3 -8 -5 -16 -5 -18 1 -1 -5 -17 -12 -35 -8 -17 -12
-38 -10 -44 3 -7 1 -13 -4 -13 -6 0 -10 -6 -10 -12 -1 -26 -12 -67 -22 -86 -6
-11 -8 -22 -6 -24 3 -3 -1 -24 -9 -46 -9 -23 -13 -42 -11 -42 2 0 -1 -15 -6
-32 -23 -81 -22 -99 8 -127 74 -67 203 -171 212 -171 5 0 11 -3 13 -7 5 -13
78 -65 78 -56 0 4 4 3 8 -3 26 -37 416 -249 477 -258 6 -1 15 -4 20 -8 6 -3
39 -16 75 -27 36 -12 72 -25 80 -28 8 -3 24 -8 35 -10 11 -2 27 -6 35 -10 8
-3 17 -7 20 -8 38 -9 112 -27 126 -30 11 -2 19 -4 19 -5 0 -1 11 -3 25 -5 14
-2 52 -9 85 -15 33 -7 77 -13 98 -14 20 0 37 -3 37 -6 0 -6 27 -7 240 -14 95
-3 159 -1 166 5 7 6 15 6 18 1 3 -5 25 -6 49 -2 24 3 62 6 84 6 23 -1 39 2 37
5 -3 5 35 10 79 10 25 0 21 14 -13 42 -17 14 -30 31 -30 38 0 7 -2 10 -6 7 -3
-3 -39 31 -81 76 -42 44 -81 86 -87 91 -43 39 -262 307 -349 425 -61 84 -185
270 -179 270 4 0 2 4 -4 8 -15 11 -84 126 -157 262 -22 41 -45 78 -51 82 -6 4
-7 8 -2 8 5 0 3 7 -4 15 -7 8 -9 15 -4 15 5 0 4 4 -2 8 -7 4 -25 36 -42 72
-16 36 -45 99 -64 140 -19 41 -40 92 -47 112 -7 21 -17 40 -22 44 -5 3 -7 9
-4 14 3 5 1 11 -5 15 -5 3 -10 12 -10 19 0 8 -6 29 -14 47 -8 19 -14 36 -14
39 0 8 -33 93 -43 113 -5 10 -7 22 -4 27 4 6 1 10 -4 10 -6 0 -10 3 -9 8 2 9
-13 63 -21 77 -3 6 -6 15 -6 20 -1 6 -7 30 -14 55 -7 25 -15 52 -16 60 -2 8
-4 17 -6 20 -1 3 -3 10 -4 15 -2 6 -4 12 -5 15 -1 3 -3 12 -5 20 -3 13 -18 75
-30 120 -2 8 -4 23 -4 33 -1 25 -14 21 -33 -10z"/>
<path d="M2350 1817 c0 -2 16 -33 35 -70 19 -37 32 -67 27 -67 -4 0 -2 -4 3
-8 6 -4 26 -36 44 -72 52 -100 90 -169 133 -239 21 -34 38 -67 38 -71 0 -5 3
-10 8 -12 4 -1 23 -28 42 -58 19 -30 37 -57 40 -60 3 -3 16 -21 28 -41 19 -32
62 -90 92 -126 5 -7 10 -15 10 -18 0 -4 6 -13 13 -20 6 -8 26 -30 42 -51 17
-20 42 -51 58 -69 15 -18 27 -35 27 -38 0 -4 10 -17 23 -30 12 -13 51 -57 86
-98 101 -116 402 -409 421 -409 9 0 20 3 24 7 7 7 31 14 59 16 9 1 17 4 17 8
0 6 58 23 73 20 4 0 7 3 7 9 0 6 3 9 8 8 4 -1 21 5 37 12 17 7 35 14 40 15 26
6 294 142 330 167 5 4 55 37 110 74 55 37 111 78 124 90 13 13 27 24 32 24 8
0 43 29 114 95 18 17 48 44 66 61 54 48 209 219 209 228 0 3 10 16 23 30 33
37 42 47 98 132 29 44 56 81 59 84 4 3 9 12 13 20 3 8 20 38 36 65 45 76 181
354 181 370 0 4 -10 4 -22 0 -13 -3 -30 -8 -38 -9 -9 -1 -20 -5 -26 -8 -6 -4
-21 -9 -35 -12 -13 -2 -31 -7 -39 -10 -8 -3 -26 -8 -40 -10 -14 -3 -35 -7 -47
-10 -40 -10 -67 -16 -108 -26 -22 -4 -51 -11 -65 -14 -14 -3 -38 -8 -55 -11
-16 -3 -43 -8 -60 -11 -16 -3 -41 -7 -55 -8 -37 -5 -102 -16 -130 -21 -14 -3
-42 -6 -62 -7 -21 -1 -38 -4 -38 -7 0 -3 -27 -6 -60 -6 -33 0 -60 -2 -60 -5 0
-3 -24 -6 -53 -7 -28 -1 -73 -4 -99 -6 -33 -4 -48 -1 -48 6 0 9 -3 8 -8 0 -6
-10 -62 -13 -223 -13 -254 0 -301 1 -312 7 -4 3 -45 6 -90 9 -45 2 -100 6
-122 8 -84 9 -151 17 -175 22 -26 5 -63 11 -115 18 -32 5 -72 12 -120 23 -16
4 -39 7 -50 8 -11 0 -25 3 -30 7 -6 3 -28 9 -50 13 -38 7 -51 10 -140 35 -22
6 -47 12 -55 14 -8 1 -48 13 -89 25 -74 23 -111 32 -111 28z"/>
</g>
</svg>
